# xmcd
#
# Track frame offsets: 
#        150
#        14362
#        27075
#        39187
#        53712
#        76525
#
# Disc length: 1203 seconds
#
# Revision: 1
# Processed by: cddbd v1.5.1PL0 Copyright (c) Steve Scherf et al.
# Submitted via: ExactAudioCopy v0.90b4
#
DISCID=3104b106
DTITLE=Various Artist - Mardi Gras Party EP
DYEAR=1989
DGENRE=Blues
TTITLE0=Buckwheat Zydeco/My Feet Can't Fail Me Now
TTITLE1=ProfessorLonghair/Mardi Gras in New Orleans
TTITLE2=Al Johnson/Carnival Time
TTITLE3=Marcia Ball/That's Enough Of That Stuff
TTITLE4=Rebirth Marching Jazz Band/My Song
TTITLE5=Golden Eagles feat. Monk Boudreaux/Little Liza Jane
EXTD=YEAR: 1989 ID3G: 0
EXTT0=
EXTT1=
EXTT2=
EXTT3=
EXTT4=
EXTT5=
PLAYORDER=
